<?xml version="1.0" encoding="utf-8"?>
<!-- Generator: Adobe Illustrator 25.3.1, SVG Export Plug-In . SVG Version: 6.00 Build 0)  -->
<svg version="1.1" id="Layer_1" xmlns="http://www.w3.org/2000/svg" xmlns:xlink="http://www.w3.org/1999/xlink" x="0px" y="0px"
	 viewBox="0 0 100.1 100.1" style="enable-background:new 0 0 100.1 100.1;" xml:space="preserve">
<style type="text/css">
	.st0{fill:#1665AE;}
	.st1{fill:#6D6E73;}
</style>
<g>
	<g>
		<polygon class="st0" points="66,68.1 2.1,68.1 7.7,58.1 38.4,2.8 44.7,12.1 19.2,58.1 59.2,58.1 		"/>
		<polygon class="st1" points="97.9,68.1 86.6,68.1 62,23.4 47.8,48.9 36.4,48.9 56.3,13 62.1,2.7 67.8,13.1 		"/>
	</g>
</g>
<g>
	<path class="st0" d="M2,83.1v-9.5h2v7.8h3.8v1.7H2z"/>
	<path class="st0" d="M13.9,83.1l-0.4-1h-0.1c-0.3,0.4-0.7,0.7-1,0.9s-0.8,0.2-1.4,0.2c-0.7,0-1.2-0.2-1.6-0.6
		c-0.4-0.4-0.6-1-0.6-1.7c0-0.8,0.3-1.3,0.8-1.7c0.5-0.4,1.3-0.6,2.4-0.6l1.3,0v-0.3c0-0.7-0.4-1.1-1.1-1.1c-0.6,0-1.3,0.2-2,0.5
		l-0.7-1.3c0.8-0.4,1.8-0.7,2.8-0.7c1,0,1.7,0.2,2.2,0.6c0.5,0.4,0.8,1.1,0.8,1.9v4.8H13.9z M13.3,79.8l-0.8,0c-0.6,0-1,0.1-1.3,0.3
		c-0.3,0.2-0.4,0.5-0.4,0.9c0,0.6,0.3,0.8,1,0.8c0.5,0,0.8-0.1,1.1-0.4c0.3-0.3,0.4-0.6,0.4-1V79.8z"/>
	<path class="st0" d="M22.5,83.1l-0.3-0.9h-0.1c-0.2,0.3-0.5,0.6-0.9,0.8c-0.4,0.2-0.8,0.3-1.3,0.3c-0.8,0-1.5-0.2-1.9-0.7
		c-0.4-0.5-0.6-1.1-0.6-2v-4.7h2v4.2c0,0.5,0.1,0.9,0.3,1.2c0.2,0.3,0.5,0.4,0.9,0.4c0.6,0,1-0.2,1.2-0.6c0.2-0.4,0.4-1,0.4-1.8
		v-3.4h2v7.2H22.5z"/>
	<path class="st0" d="M32.7,83.1h-2v-4.2c0-0.5-0.1-0.9-0.3-1.2c-0.2-0.3-0.5-0.4-0.9-0.4c-0.6,0-1,0.2-1.2,0.6
		c-0.2,0.4-0.4,1-0.4,1.8v3.4h-2v-7.2h1.5l0.3,0.9h0.1c0.2-0.3,0.5-0.6,0.9-0.8c0.4-0.2,0.8-0.3,1.3-0.3c0.8,0,1.5,0.2,1.9,0.7
		c0.4,0.5,0.7,1.1,0.7,2V83.1z"/>
	<path class="st0" d="M37.7,83.2c-2.3,0-3.4-1.2-3.4-3.7c0-1.2,0.3-2.2,0.9-2.8c0.6-0.6,1.5-1,2.6-1c0.8,0,1.6,0.2,2.3,0.5l-0.6,1.5
		c-0.3-0.1-0.6-0.2-0.9-0.3c-0.3-0.1-0.5-0.1-0.8-0.1c-1,0-1.5,0.7-1.5,2.2c0,1.4,0.5,2.1,1.5,2.1c0.4,0,0.7-0.1,1.1-0.2
		c0.3-0.1,0.6-0.3,1-0.5v1.7c-0.3,0.2-0.6,0.3-1,0.4C38.6,83.2,38.2,83.2,37.7,83.2z"/>
	<path class="st0" d="M48.2,83.1h-2v-4.2c0-1-0.4-1.6-1.2-1.6c-0.6,0-1,0.2-1.2,0.6s-0.4,1-0.4,1.8v3.4h-2V73.1h2v2.1
		c0,0.2,0,0.5,0,1.1l0,0.6h0.1c0.4-0.7,1.1-1.1,2.1-1.1c0.8,0,1.5,0.2,1.9,0.7c0.4,0.5,0.7,1.1,0.7,2V83.1z"/>
	<path class="st0" d="M50.2,74c0-0.6,0.4-1,1.1-1s1.1,0.3,1.1,1c0,0.3-0.1,0.5-0.3,0.7c-0.2,0.2-0.4,0.3-0.8,0.3
		C50.5,75,50.2,74.7,50.2,74z M52.2,83.1h-2v-7.2h2V83.1z"/>
	<path class="st0" d="M61,83.1h-2v-4.2c0-0.5-0.1-0.9-0.3-1.2c-0.2-0.3-0.5-0.4-0.9-0.4c-0.6,0-1,0.2-1.2,0.6
		c-0.2,0.4-0.4,1-0.4,1.8v3.4h-2v-7.2h1.5l0.3,0.9h0.1c0.2-0.3,0.5-0.6,0.9-0.8s0.8-0.3,1.3-0.3c0.8,0,1.5,0.2,1.9,0.7
		s0.7,1.1,0.7,2V83.1z"/>
	<path class="st0" d="M69.3,75.9v1l-1.1,0.3c0.2,0.3,0.3,0.7,0.3,1.1c0,0.8-0.3,1.4-0.8,1.8c-0.5,0.4-1.3,0.7-2.3,0.7l-0.4,0l-0.3,0
		c-0.2,0.2-0.3,0.3-0.3,0.5c0,0.3,0.4,0.4,1.1,0.4h1.2c0.8,0,1.4,0.2,1.8,0.5c0.4,0.3,0.6,0.8,0.6,1.5c0,0.8-0.4,1.5-1.1,2
		s-1.7,0.7-3,0.7c-1,0-1.8-0.2-2.3-0.5c-0.5-0.4-0.8-0.8-0.8-1.5c0-0.4,0.1-0.8,0.4-1.1c0.3-0.3,0.7-0.5,1.2-0.6
		c-0.2-0.1-0.4-0.2-0.5-0.4s-0.2-0.4-0.2-0.6c0-0.3,0.1-0.5,0.2-0.7c0.2-0.2,0.4-0.4,0.7-0.5c-0.4-0.2-0.7-0.4-0.9-0.8
		c-0.2-0.4-0.3-0.8-0.3-1.3c0-0.8,0.3-1.4,0.8-1.8c0.5-0.4,1.2-0.6,2.2-0.6c0.2,0,0.4,0,0.7,0.1s0.5,0.1,0.5,0.1H69.3z M63.7,84.1
		c0,0.3,0.1,0.5,0.4,0.6c0.3,0.2,0.6,0.2,1.1,0.2c0.7,0,1.3-0.1,1.7-0.3s0.6-0.5,0.6-0.8c0-0.3-0.1-0.5-0.4-0.6
		c-0.2-0.1-0.6-0.2-1.1-0.2h-1c-0.4,0-0.7,0.1-0.9,0.3C63.9,83.6,63.7,83.9,63.7,84.1z M64.5,78.3c0,0.4,0.1,0.7,0.3,0.9
		c0.2,0.2,0.5,0.3,0.8,0.3c0.4,0,0.6-0.1,0.8-0.3c0.2-0.2,0.3-0.5,0.3-0.9c0-0.9-0.4-1.3-1.1-1.3C64.8,76.9,64.5,77.4,64.5,78.3z"/>
	<g>
		<path class="st1" d="M79.5,83.1l0-5.7l-2.8,4.7h-1l-2.8-4.6v5.6h-2.1v-9.5h1.8l3.5,5.9l3.5-5.9h1.8l0,9.5H79.5z"/>
	</g>
	<path class="st1" d="M88.1,83.1l-0.4-1h-0.1c-0.3,0.4-0.7,0.7-1,0.9c-0.4,0.2-0.8,0.2-1.4,0.2c-0.7,0-1.2-0.2-1.6-0.6
		c-0.4-0.4-0.6-1-0.6-1.7c0-0.8,0.3-1.3,0.8-1.7s1.3-0.6,2.4-0.6l1.3,0v-0.3c0-0.7-0.4-1.1-1.1-1.1c-0.6,0-1.3,0.2-2,0.5l-0.7-1.3
		c0.8-0.4,1.8-0.7,2.8-0.7c1,0,1.7,0.2,2.2,0.6c0.5,0.4,0.8,1.1,0.8,1.9v4.8H88.1z M87.5,79.8l-0.8,0c-0.6,0-1,0.1-1.3,0.3
		c-0.3,0.2-0.4,0.5-0.4,0.9c0,0.6,0.3,0.8,1,0.8c0.5,0,0.8-0.1,1.1-0.4c0.3-0.3,0.4-0.6,0.4-1V79.8z"/>
	<path class="st1" d="M93,79.4l-2.3-3.5h2.2l1.4,2.3l1.4-2.3H98l-2.4,3.5l2.5,3.7h-2.2l-1.5-2.5l-1.5,2.5h-2.2L93,79.4z"/>
</g>
</svg>
